<?xml version="1.0" encoding="utf-8"?>
<!-- Generator: Adobe Illustrator 19.0.0, SVG Export Plug-In . SVG Version: 6.00 Build 0)  -->
<svg version="1.1" id="Capa_1" xmlns="http://www.w3.org/2000/svg" xmlns:xlink="http://www.w3.org/1999/xlink" x="0px" y="0px"
	 viewBox="-49 141 512 512" style="enable-background:new -49 141 512 512;" xml:space="preserve">
<style type="text/css">
	.st0{fill:#8F8F8F;}
</style>
<g>
	<path class="st0" d="M207,141C65.9,141-49,255.8-49,397S65.8,653,207,653c141.2,0,256-114.8,256-256S348.2,141,207,141z M207,615.5
		c-114.2,0-208.1-88.2-217.6-200l208.8,0l-12.7,12.7c-7.9,7.9-7.9,20.7,0,28.6c3.9,4,9.1,5.9,14.3,5.9c5.2,0,10.4-2,14.3-5.9
		l47.2-47.2c0,0,0,0,0,0l14.3-14.3L261.4,381c0,0,0,0,0,0l-50.6-50.6c-7.9-7.9-20.7-7.9-28.6,0c-7.9,7.9-7.9,20.7,0,28.6l16,16.1
		l-208.6,0C0.6,264.8,93.9,178.5,207,178.5c120.5,0,218.5,98.1,218.5,218.6C425.5,517.5,327.5,615.5,207,615.5z"/>
</g>
</svg>
